<?xml version="1.0" encoding="iso-8859-1"?>
<!-- Generator: Adobe Illustrator 16.0.0, SVG Export Plug-In . SVG Version: 6.00 Build 0)  -->
<!DOCTYPE svg PUBLIC "-//W3C//DTD SVG 1.1//EN" "http://www.w3.org/Graphics/SVG/1.1/DTD/svg11.dtd">
<svg version="1.1" id="Capa_1" xmlns="http://www.w3.org/2000/svg" xmlns:xlink="http://www.w3.org/1999/xlink" x="0px" y="0px"
	 width="270.054px" height="270.054px" viewBox="0 0 270.054 270.054" style="enable-background:new 0 0 270.054 270.054;"
	 xml:space="preserve">
<g>
	<g>
		<path d="M266.639,78.803c-9.4-1.7-18.9-2.2-28.4-3c8.8-8,16.699-16.7,21.5-27.9c1.6-3.7-0.2-8.6-4.9-8.5
			c-12.4,0.3-24.4,3-36.3,6.6c-45.7-56.9-107.8,34-155.2,87.4c-0.8-5-2.3-10-3.2-14c-2.4-10.3-6.9-24.2-18.6-26.8
			c-12.4-2.7-16.8,9.9-16,19.6c0.2,2.9,0.8,5.9,1.5,8.8c-5.2-4.3-10.8-7.4-16.8-7.9c-9.6-0.8-10.9,11.2-10,17.8
			c1.3,10.1,10.7,35.6,23.6,41.6c1,2.9,3.7,5.3,7,4c0.3-0.1,0.5-0.3,0.8-0.4c8.2,9.601,26.9,9.601,38.1,11
			c14.7,1.801,29.8,2.4,44.9,2.301c-4.7,16.6-3,44,14.4,52.399c2.6,1.3,6.6-1.6,4.4-4.399c-11-14.801-16.3-29.5-15.2-48
			c12.5-0.2,25.1-0.9,37.4-2c-5.301,16.8,2.899,45.5,23.899,45.399c4,0,6.101-6,2.101-7.899c-8.101-3.801-14.301-6-18.101-15
			c-3.101-7.5-2.5-15.2-2.5-23.101c3.2-0.3,6.3-0.6,9.5-1c48.3-5.5,75.101-41.3,71.3-82.799c0.5,0.1,1,0,1.5-0.2
			c9.4-3.6,16.1-9.4,24.2-15.2C270.838,85.603,271.238,79.703,266.639,78.803z M45.238,106.403c7.8,11.2,4.8,25.5,8.6,37.399
			c-1.4,1.4-2.7,2.8-4,4.101c0-0.7-0.2-1.4-0.7-2.101c-4.3-6.2-7.3-13.7-9.9-20.6c-1.9-5-3.3-10.2-3.9-15.5
			C34.638,101.803,41.138,100.403,45.238,106.403z M27.438,165.403c-9.1-5.9-15.1-24-16.8-31.2c-0.8-3.2-3.1-12.4,1.7-11
			c11.8,3.6,22.3,19.399,29.6,28.3c0.8,1,1.8,1.4,2.8,1.4C38.438,158.602,32.738,162.903,27.438,165.403z M157.438,176.403
			c-40.799,4.1-80.299,3-120.399-2.801c56.5-28.3,72.2-115,136-132.299c21.5-5.8,38.5,14.4,48.8,34.3c-0.199,0.2-0.4,0.4-0.6,0.5
			c-4.1,3.5-0.301,8.9,3.9,9.4c0.5,0.1,1,0.1,1.399,0.1c1.8,4.4,3.399,8.6,4.399,12.2
			C245.538,147.002,196.838,172.403,157.438,176.403z"/>
		<path d="M192.438,63.903c-1.799-1.2-4-0.5-5.5,0.7c-3.1,2.5-2.6,7-2.899,10.6c-0.3,2.6-1.101,5.4-2.2,7.8
			c-1.1,2.3-2.1,3.6-3.9,5.2c-0.899,0.8-1.699,1.2-3.199,1.6c-0.1,0-0.7,0-1.2,0c0.2-0.1-0.601-0.3-0.899-0.3
			c-0.701-0.4-1.301-1-1.601-1.8c-2.2-5.5,0.3-12,1.899-17.2c1.301-4.3-4.899-6.8-7.1-3c-4,6.8-6.8,15.6-4.5,23.5
			c1.7,6,7.301,10.3,13.6,10c6.801-0.3,12.301-4.9,15.9-10.3c2.2-3.3,3.5-7.3,4.301-11.2
			C196.238,74.503,197.538,67.403,192.438,63.903z"/>
		<path d="M180.738,131.303c-5.301-2.5-11.6,4.2-6.6,8.6c6.6,6,9.5,13.3,0.199,18.5c-13.6,7.6-20.699-15.101-22.4-23.9
			c-1.199-6.5-10.299-4.3-10.899,1.5c0,0.1,0,0.2,0,0.3c-1-2.899-4.101-5-7.6-3.2c-0.5,0.3-1,0.6-1.6,0.9
			c-7.9,4.599-27.3,13.599-26.2-1.7c1.1-15.9,21.8-12.5,31.299-8.6c3.9,1.6,6-4.4,2.701-6.5c-16.201-10.2-42.201-8-44.701,15.1
			c-0.8,7.299,2.8,14.799,9.8,17.799c4.5,1.9,9.3,2,14,1.101c-1.3,5.7,0.2,11.5,6.5,15.8c11.199,7.7,18.4-1.2,22.6-11.8
			c6.6,11.8,17.301,20.1,32.301,13.1C195.338,161.002,196.438,138.602,180.738,131.303z M131.238,157.903c-7.2-4,2.5-12.4,6.6-15
			c0.301-0.2,0.6-0.301,0.9-0.5c0.699-0.4,1.199-1,1.699-1.5C139.238,148.302,136.639,160.903,131.238,157.903z"/>
	</g>
</g>
<g>
</g>
<g>
</g>
<g>
</g>
<g>
</g>
<g>
</g>
<g>
</g>
<g>
</g>
<g>
</g>
<g>
</g>
<g>
</g>
<g>
</g>
<g>
</g>
<g>
</g>
<g>
</g>
<g>
</g>
</svg>
